<?xml version="1.0" encoding="UTF-8" standalone="no"?>
<svg
   id="svg"
   version="1.1"
   width="400"
   height="447.30077120822625"
   viewBox="0, 0, 400,447.30077120822625"
    xmlns="http://www.w3.org/2000/svg"
   xmlns:svg="http://www.w3.org/2000/svg">

  <g
     id="svgg">
    <path
       id="path0"
       d="m 206.36,115.14 c -2.237,1.289 -11.306,6.479 -12.447,7.124 -0.451,0.255 -0.974,0.705 -1.161,1 -0.187,0.295 -0.343,24.876 -0.346,54.626 l -0.006,54.089 1.3,0.666 c 0.715,0.365 1.93,1.151 2.7,1.745 0.77,0.595 1.94,1.357 2.6,1.694 1.799,0.919 4.544,2.451 6.918,3.859 2.805,1.665 2.939,1.645 7.952,-1.204 2.382,-1.353 4.96,-2.81 5.73,-3.239 0.77,-0.428 1.76,-1.099 2.2,-1.492 0.44,-0.393 1.36,-0.997 2.045,-1.343 1.37,-0.692 1.742,-1.912 1.751,-5.738 0.004,-1.967 1.234,-3.727 2.604,-3.727 0.152,0 0.754,-0.334 1.338,-0.743 0.584,-0.408 1.962,-1.248 3.062,-1.866 1.1,-0.618 3.12,-1.755 4.489,-2.525 l 2.488,-1.402 0.112,-5.014 0.111,-5.013 1.6,-1.124 c 0.88,-0.618 2.14,-1.392 2.8,-1.72 4.295,-2.13 8.077,-4.545 8.766,-5.597 0.815,-1.245 0.973,-39.212 0.169,-40.722 -0.639,-1.199 -1.021,-1.465 -6.86,-4.765 -7.126,-4.027 -6.675,-3.414 -6.675,-9.076 0,-3.305 -0.151,-4.858 -0.5,-5.141 -0.485,-0.395 -2.001,-1.285 -5.3,-3.113 -0.88,-0.488 -3.063,-1.725 -4.852,-2.748 l -3.252,-1.862 -0.173,-3.626 c -0.214,-4.482 1.334,-3.174 -14.228,-12.02 -2.317,-1.317 -2.623,-1.316 -4.935,0.017 m 6.759,7.31 c 1.915,1.127 3.969,2.387 4.565,2.8 0.596,0.412 1.25,0.75 1.453,0.75 1.466,0 1.256,13.872 -0.237,15.646 -2.892,3.437 -1.051,9.065 3.095,9.463 5.371,0.516 8.107,-4.582 4.805,-8.955 -1.929,-2.555 -2.207,-4.554 -0.633,-4.554 0.531,0 1.026,0.135 1.1,0.3 0.073,0.165 1.303,0.909 2.733,1.653 3.977,2.07 4,2.103 4,5.639 0,3.732 -0.03,3.767 -6.149,7.181 -5.36,2.991 -4.811,3.011 -10.85,-0.404 -6.036,-3.413 -5.737,-2.906 -5.662,-9.626 l 0.061,-5.454 1.377,-1.917 c 2.063,-2.872 1.979,-5.204 -0.267,-7.45 -4.876,-4.876 -12.178,2.017 -7.694,7.263 L 206,136.17 v 7.851 7.852 l 1.9,1.068 c 1.045,0.587 2.8,1.61 3.9,2.273 1.1,0.663 2.45,1.424 3,1.691 0.55,0.267 1.238,0.713 1.529,0.99 0.29,0.278 0.681,0.505 0.869,0.505 0.187,0 0.894,0.466 1.571,1.036 l 1.231,1.035 v 5.893 5.893 l -1.189,1.572 c -3.764,4.975 0.95,11.346 6.355,8.588 3.436,-1.752 4.034,-4.852 1.634,-8.465 l -1.6,-2.409 v -5.141 c 0,-5.53 0.529,-6.965 2.965,-8.04 0.459,-0.202 1.735,-0.904 2.835,-1.56 1.1,-0.655 2.867,-1.633 3.927,-2.173 l 1.927,-0.983 1.673,0.942 c 0.92,0.519 3.383,1.913 5.473,3.099 l 3.8,2.156 0.104,11.179 0.105,11.178 -2.07,1.2 c -1.138,0.66 -2.564,1.484 -3.168,1.83 -0.605,0.347 -1.559,0.932 -2.121,1.3 -0.713,0.468 -1.88,0.67 -3.862,0.67 -4.013,0 -5.678,1.1 -6.197,4.092 -1.117,6.443 8.35,9.085 10.334,2.885 0.519,-1.622 1.514,-2.625 3.864,-3.894 2.984,-1.612 3.211,-1.516 3.211,1.355 0,2.413 -1.014,4.762 -2.055,4.762 -0.221,0 -1.186,0.54 -2.145,1.2 -0.959,0.66 -1.922,1.2 -2.139,1.2 -0.217,0 -0.454,0.142 -0.528,0.315 -0.205,0.484 -3.8,2.485 -4.464,2.485 -0.324,0 -1.732,-0.721 -3.129,-1.601 -1.397,-0.881 -3.427,-2.096 -4.51,-2.7 -6.237,-3.477 -5.556,-6.017 2.884,-10.752 3.017,-1.693 5.981,-3.421 6.586,-3.84 l 1.1,-0.761 v -6.252 c 0,-6.093 0.027,-6.289 1.048,-7.763 3.824,-5.519 -2.509,-12.764 -7.269,-8.317 -2.81,2.626 -2.887,5.013 -0.279,8.653 1.22,1.703 1.371,10.013 0.2,10.998 -0.98,0.825 -5.679,3.535 -6.129,3.535 -0.204,0 -0.371,0.18 -0.371,0.4 0,0.22 -0.202,0.4 -0.448,0.4 -0.246,0 -1.776,0.756 -3.4,1.68 L 220,186.959 v 3.851 c 0,4.248 -0.114,4.472 -3.2,6.271 -0.77,0.45 -3.072,1.83 -5.116,3.068 -2.043,1.238 -3.888,2.251 -4.1,2.251 -0.211,0 -0.384,0.18 -0.384,0.4 0,0.22 -0.27,0.4 -0.6,0.4 -0.513,0 -0.6,1.127 -0.6,7.74 v 7.74 l -1.2,1.657 c -3.35,4.624 0.369,10.345 5.733,8.82 3.469,-0.986 4.954,-5.755 2.569,-8.255 -0.578,-0.606 -1.228,-1.572 -1.445,-2.146 -0.475,-1.256 -0.311,-11.87 0.19,-12.345 0.523,-0.496 3.788,-2.382 5.053,-2.919 0.605,-0.257 1.1,-0.608 1.1,-0.78 0,-0.171 0.184,-0.312 0.408,-0.312 0.224,0 1.121,-0.45 1.992,-1 2.011,-1.269 2.476,-1.232 5.4,0.428 1.32,0.75 2.895,1.585 3.5,1.855 0.605,0.271 1.1,0.633 1.1,0.805 0,0.171 0.208,0.312 0.462,0.312 0.254,0 1.064,0.459 1.8,1.02 2.797,2.133 1.406,9.38 -1.8,9.38 -0.254,0 -0.462,0.18 -0.462,0.4 0,0.22 -0.174,0.4 -0.386,0.4 -0.212,0 -1.229,0.534 -2.259,1.187 -3.159,2.004 -3.785,-0.607 -0.955,-3.987 4.253,-5.08 -1.796,-11.869 -7.131,-8.004 -1.555,1.126 -1.99,1.902 -2.135,3.804 -0.149,1.963 0.146,2.991 1.266,4.4 l 1.2,1.51 v 6.371 c 0,3.505 -0.173,6.695 -0.385,7.091 -0.36,0.672 -5.56,4.015 -6.285,4.039 -0.181,0.006 -1.037,0.546 -1.901,1.2 -1.791,1.355 -3.294,1.508 -4.675,0.476 -1.571,-1.174 -5.845,-3.687 -6.272,-3.687 -0.219,0 -0.956,-0.522 -1.64,-1.16 l -1.242,-1.161 v -14.015 -14.016 l 3.674,-2.272 c 6.18,-3.823 6.157,-3.814 9.221,-3.823 4.511,-0.015 6.305,-1.612 6.305,-5.612 0,-5.795 -7.646,-6.776 -10.231,-1.312 -0.685,1.449 -1.377,2.284 -2.186,2.643 -0.651,0.288 -1.183,0.659 -1.183,0.826 0,0.166 -0.215,0.302 -0.478,0.302 -0.264,0 -1.119,0.432 -1.9,0.96 -0.782,0.528 -1.827,1.08 -2.322,1.227 l -0.9,0.267 v -16.76 c 0,-9.219 0.105,-16.866 0.234,-16.995 0.282,-0.281 4.568,2.161 6.666,3.798 2.087,1.628 2.238,5.585 0.311,8.132 -4.206,5.559 2.852,12.082 7.761,7.172 2.273,-2.273 2.236,-3.829 -0.193,-8.201 -0.612,-1.102 -0.778,-2.182 -0.778,-5.078 -0.001,-4.463 -0.29,-4.888 -5.001,-7.36 -1.76,-0.923 -3.65,-1.987 -4.2,-2.364 -0.55,-0.377 -1.69,-1.008 -2.533,-1.403 -0.843,-0.395 -1.698,-1.152 -1.9,-1.682 -0.389,-1.023 -0.511,-24.136 -0.135,-25.536 0.196,-0.729 1.851,-1.789 9.487,-6.071 1.429,-0.802 2.138,-0.613 5.8,1.544 m -2.399,7.23 c 1.875,1.875 -1.134,5.042 -3.414,3.594 -0.861,-0.547 -1.056,-2.666 -0.314,-3.409 0.772,-0.772 3.029,-0.884 3.728,-0.185 m 13.526,14.226 c 0.867,0.571 1.043,2.098 0.363,3.136 -0.921,1.406 -3.317,1.236 -4.173,-0.296 -1.141,-2.044 1.749,-4.198 3.81,-2.84 m 14.333,18.718 c 0.897,1.369 0.654,2.619 -0.652,3.349 -1.713,0.959 -3.293,0.212 -3.448,-1.631 -0.223,-2.648 2.69,-3.869 4.1,-1.718 M 210.7,173.517 c 0.687,0.874 0.627,2.299 -0.129,3.054 -1.354,1.355 -4.171,0.304 -4.171,-1.557 0,-2.288 2.888,-3.294 4.3,-1.497 m 13.852,3.001 c 1.181,1.589 0.303,3.225 -1.827,3.404 -2.404,0.202 -3.401,-1.755 -1.879,-3.69 1.077,-1.369 2.561,-1.254 3.706,0.286 m -11.421,10.216 c 1.325,1.02 1.093,3.205 -0.431,4.054 -2.586,1.44 -4.805,-2.103 -2.468,-3.942 1.301,-1.023 1.694,-1.039 2.899,-0.112 m 23.883,3.512 c 1.799,1.178 1.026,4.554 -1.043,4.554 -2.181,0 -3.08,-2.984 -1.317,-4.371 1.263,-0.994 1.138,-0.984 2.36,-0.183 M 224.4,208 c 1.968,1.968 -0.407,4.867 -2.908,3.55 -1.71,-0.901 -1.946,-2.112 -0.676,-3.475 1.017,-1.091 2.536,-1.123 3.584,-0.075 m -13.823,14.489 c 0.879,1.255 0.773,2.56 -0.266,3.288 -2.552,1.788 -5.049,-1.242 -3.03,-3.675 0.687,-0.827 2.603,-0.602 3.296,0.387 M 75.965,259.748 c -1.229,0.265 -3.511,1.253 -5.072,2.196 -2.425,1.465 -3.806,2.726 -7.071,6.456 -2.553,2.917 -3.336,12.193 -1.217,14.406 0.94,0.981 1.067,1.302 0.624,1.576 -2.624,1.622 5.947,9.319 12.864,11.554 8.305,2.683 20.485,-3.086 22.899,-10.845 0.358,-1.15 0.815,-2.393 1.015,-2.763 0.572,-1.055 0.883,-5.653 0.428,-6.328 -0.358,-0.531 -7.457,-1.304 -11.035,-1.201 -9.151,0.262 -10.638,0.454 -10.335,1.335 0.164,0.476 0.235,1.406 0.158,2.066 -0.517,4.448 -0.031,5 4.411,5 2.483,0 3.129,-0.127 3.332,-0.654 0.301,-0.787 1.834,0.332 1.834,1.339 0,0.993 -2.511,2.891 -4.647,3.511 -7.744,2.252 -13.401,-2.955 -12.587,-11.583 l 0.338,-3.588 1.948,-1.704 c 1.071,-0.938 2.218,-1.709 2.548,-1.714 0.33,-0.006 1.189,-0.369 1.91,-0.808 2.444,-1.491 6.769,-0.275 9.05,2.545 1.626,2.009 3.111,2.394 7.909,2.051 L 99.277,272.308 99,270.462 C 97.901,263.131 85.989,257.59 75.965,259.748 m 194.852,-0.025 c -1.666,0.575 -3.383,2.927 -3.997,5.477 -0.239,0.99 -1.314,3.6 -2.39,5.8 -2.474,5.057 -3.23,6.793 -3.23,7.415 0,0.272 -0.706,1.955 -1.57,3.74 -0.863,1.785 -1.944,4.367 -2.402,5.738 -0.457,1.371 -1.301,3.484 -1.875,4.696 -1.551,3.275 -1.393,3.412 3.934,3.405 5.249,-0.007 5.17,0.026 6.61,-2.816 L 267,291 l 5.556,-0.112 c 5.701,-0.114 7.044,0.212 7.044,1.713 0,2.677 1.629,3.476 6.758,3.316 4.659,-0.145 5.006,-0.478 3.541,-3.395 -0.557,-1.108 -1.142,-2.623 -1.301,-3.368 -0.159,-0.745 -0.786,-2.434 -1.394,-3.754 -2.019,-4.387 -2.319,-5.183 -2.827,-7.5 -0.277,-1.265 -0.656,-2.3 -0.841,-2.3 -0.185,0 -0.336,-0.245 -0.336,-0.544 0,-0.299 -0.451,-1.209 -1.002,-2.022 -0.552,-0.812 -1.47,-2.952 -2.042,-4.755 -2.952,-9.317 -4.097,-10.366 -9.339,-8.556 m 28.143,-0.168 c -7.431,0.301 -7.36,0.259 -7.36,4.424 0,3.691 0.772,4.789 3.426,4.868 0.866,0.026 2.082,0.161 2.703,0.3 l 1.129,0.253 0.074,12.883 c 0.085,14.859 -0.251,13.78 4.337,13.908 4.654,0.13 5.131,-0.102 5.131,-2.492 0,-1.057 0.25,-2.278 0.556,-2.715 0.421,-0.601 0.628,-3.39 0.853,-11.489 l 0.296,-10.695 h 2.685 c 3.631,0 4.01,-0.441 4.01,-4.67 0,-5.055 -0.822,-5.266 -17.84,-4.575 m -67.76,0.312 c -0.33,0.113 -1.14,0.444 -1.8,0.736 -0.66,0.292 -1.894,0.659 -2.741,0.816 -2.925,0.542 -9.059,7.079 -9.059,9.655 0,0.745 -0.288,1.794 -0.641,2.332 -0.471,0.719 -0.657,2.07 -0.7,5.086 l -0.059,4.108 1.791,3.4 c 3.023,5.741 12.044,12.125 14.153,10.016 1.607,-1.607 0.649,-7.621 -1.474,-9.251 -6.473,-4.969 -5.626,-14.465 1.645,-18.425 1.008,-0.55 1.292,-1.048 1.688,-2.956 1.07,-5.151 0.34,-6.587 -2.803,-5.517 m 4.86,1.46 c -1.12,4.45 -0.522,6.322 2.323,7.267 1.513,0.503 2.496,1.229 4.103,3.032 2.101,2.355 2.133,2.373 5.114,2.796 6.486,0.922 7.265,-0.077 4.545,-5.829 -1.771,-3.744 -8.897,-8.483 -13.367,-8.888 l -2.258,-0.205 -0.46,1.827 M 165.272,261 c -0.654,0.83 -0.704,1.627 -0.536,8.458 0.228,9.263 0.23,12.876 0.014,19.486 -0.192,5.884 0.216,7.165 2.437,7.653 1.855,0.408 5.055,-0.157 6.26,-1.105 l 1.062,-0.836 -0.271,-4.528 c -0.149,-2.49 -0.123,-4.528 0.057,-4.528 0.598,0 1.72,1.613 2.874,4.133 2.778,6.064 7.02,8.161 12.965,6.408 1.071,-0.316 0.539,-1.955 -1.277,-3.928 -0.815,-0.887 -2.197,-2.741 -3.07,-4.121 -0.873,-1.379 -2.262,-3.422 -3.087,-4.54 -0.825,-1.118 -1.5,-2.291 -1.5,-2.607 0,-0.504 8.223,-9.741 9.22,-10.357 1.333,-0.824 0.303,-1.68 -2.32,-1.927 -5.019,-0.474 -6.449,-0.35 -7.332,0.639 -2.209,2.473 -4.3,5.096 -5.12,6.423 -0.503,0.812 -1.053,1.477 -1.223,1.477 -0.51,0 -0.828,-5.277 -0.422,-7 0.687,-2.909 0.499,-8.789 -0.303,-9.477 -1.256,-1.078 -7.525,-0.872 -8.428,0.277 m -84.38,3.233 c -0.175,0.914 -0.266,0.964 -0.792,0.438 -0.641,-0.641 -0.377,-1.471 0.468,-1.471 0.345,0 0.454,0.35 0.324,1.033 M 275.6,266.48 c 0,0.217 -0.36,0.489 -0.8,0.604 -0.44,0.115 -0.8,0.379 -0.8,0.586 0,0.208 -0.18,0.266 -0.4,0.13 -0.565,-0.349 -0.497,-0.846 0.212,-1.554 0.626,-0.627 1.788,-0.474 1.788,0.234 m -49.265,1.004 c -1.183,0.497 -1.935,0.4 -1.935,-0.25 0,-0.175 0.585,-0.491 1.3,-0.702 1.748,-0.516 2.269,0.265 0.635,0.952 m -115.547,0.226 c -9.115,4.851 -11.721,14.507 -5.946,22.029 5.927,7.721 18.282,7.513 23.635,-0.398 1.897,-2.803 1.845,-3.206 -0.481,-3.705 -3.073,-0.659 -3.865,-0.554 -6.954,0.92 -1.563,0.745 -3.439,1.482 -4.169,1.637 -0.73,0.156 -1.424,0.535 -1.543,0.845 -0.608,1.584 -3.68,-1.699 -4.03,-4.306 -0.209,-1.561 -0.181,-1.612 0.73,-1.322 0.521,0.165 3.492,0.314 6.601,0.331 6.046,0.034 6.228,-0.02 7.278,-2.141 l 0.495,-1 -0.257,1 c -0.141,0.55 -0.333,1.203 -0.426,1.451 -0.094,0.251 0.418,0.568 1.155,0.715 0.728,0.145 1.82,0.367 2.425,0.494 2.236,0.469 2.742,-2.878 1.181,-7.82 -0.999,-3.164 -5.607,-8.267 -7.189,-7.962 -0.381,0.073 -1.074,-0.31 -1.54,-0.852 -1.532,-1.78 -7.549,-1.734 -10.965,0.084 m 32.812,-0.817 c -0.55,0.267 -1.09,0.601 -1.2,0.742 -0.11,0.141 -0.641,0.395 -1.179,0.563 -3.301,1.032 -7.488,7.232 -7.9,11.699 -0.482,5.233 3.953,12.815 8.265,14.128 0.778,0.237 1.846,0.643 2.375,0.903 1.673,0.822 7.163,0.554 9.395,-0.46 3.519,-1.597 9.01,-7.131 7.988,-8.049 -1.768,-1.59 -5.484,-1.53 -8.924,0.144 -1.541,0.75 -3.509,1.483 -4.375,1.629 -1.271,0.215 -1.624,0.472 -1.842,1.337 -0.26,1.039 -0.282,1.046 -0.736,0.246 -0.257,-0.454 -0.962,-1.461 -1.567,-2.238 -1.469,-1.886 -1.601,-4.569 -0.2,-4.071 0.495,0.176 1.53,0.268 2.3,0.204 2.729,-0.225 3.436,-0.214 6.683,0.106 l 3.282,0.324 0.692,-1.45 c 0.38,-0.797 0.874,-1.45 1.097,-1.45 0.233,0 0.202,0.204 -0.074,0.48 -1.251,1.251 1.764,3.326 3.735,2.57 1.87,-0.718 1.567,-6.89 -0.5,-10.162 -1.734,-2.747 -4.249,-5.287 -5.605,-5.662 -0.772,-0.213 -1.756,-0.705 -2.185,-1.094 -0.982,-0.888 -7.938,-1.209 -9.525,-0.439 m 55.2,0.022 c -4.613,1.244 -8.122,5.895 -7.399,9.809 0.463,2.511 4.533,6.007 7.783,6.687 3.524,0.737 6.016,2.63 6.016,4.569 0,0.931 -3.814,0.47 -4.801,-0.581 -2.192,-2.334 -9.199,-2.313 -9.199,0.027 0,2.046 2.615,5.405 5.291,6.796 8.304,4.315 16.835,-0.174 17.2,-9.051 0.13,-3.162 -3.464,-6.016 -9.505,-7.547 -0.933,-0.236 -2.173,-0.985 -2.939,-1.776 l -1.326,-1.367 1.253,-0.275 c 0.95,-0.209 1.742,-0.02 3.277,0.782 4.035,2.111 8.551,1.483 8.255,-1.146 -0.58,-5.143 -7.584,-8.632 -13.906,-6.927 m 103.6,0.035 c 0,0.302 0.12,1.151 0.267,1.886 l 0.267,1.336 -1.245,-0.986 c -1.45,-1.148 -1.544,-1.504 -0.589,-2.229 0.906,-0.688 1.3,-0.69 1.3,-0.007 m -28.976,2.837 c 0.721,0.546 0.652,0.588 -0.973,0.6 -1.51,0.011 -1.681,-0.069 -1.251,-0.587 0.627,-0.756 1.237,-0.759 2.224,-0.013 M 306.4,272.4 c 0,0.22 -0.495,0.387 -1.1,0.372 -0.975,-0.025 -1.009,-0.067 -0.3,-0.372 1.093,-0.469 1.4,-0.469 1.4,0 m -32.878,1.1 c 0.561,1.476 1.963,6.384 2.283,8 l 0.259,1.3 h -2.343 c -1.46,0 -2.674,-0.232 -3.22,-0.615 l -0.878,-0.614 0.944,-2.135 c 0.519,-1.174 1.075,-3.102 1.234,-4.285 0.422,-3.126 0.962,-3.644 1.721,-1.651 m -153.079,1.934 c 2.715,2.584 2.609,2.671 -2.909,2.382 -7.296,-0.381 -8.173,-0.773 -5.434,-2.43 2.997,-1.812 6.409,-1.793 8.343,0.048 m 30.572,-0.584 c 1.419,0.709 2.585,2.063 2.585,3.003 0,0.118 -2.025,0.102 -4.5,-0.036 -7.95,-0.442 -8.668,-0.833 -5,-2.724 2.55,-1.314 4.624,-1.387 6.915,-0.243 m 154.028,0.983 c -0.134,0.348 -0.243,0.798 -0.243,1 0,0.591 -0.518,0.405 -1.8,-0.645 l -1.2,-0.984 1.743,-0.002 c 1.425,-0.002 1.698,0.113 1.5,0.631 m -84.243,0.918 c 0,0.193 -0.27,0.575 -0.6,0.849 -0.501,0.416 -0.6,0.358 -0.6,-0.351 0,-0.488 0.255,-0.849 0.6,-0.849 0.33,0 0.6,0.158 0.6,0.351 m -113.422,2.337 c 0.308,0.802 0.103,0.995 -0.721,0.679 -0.361,-0.139 -0.657,-0.588 -0.657,-0.997 0,-0.878 1.009,-0.645 1.378,0.318 m 31.19,-0.212 c 0.338,0.482 0.543,0.946 0.457,1.032 -0.325,0.325 -1.825,-0.761 -1.825,-1.322 0,-0.856 0.664,-0.716 1.368,0.29 M 85.2,279.839 c 0,0.089 -0.624,0.161 -1.387,0.161 -1.035,0 -1.332,-0.145 -1.17,-0.568 0.199,-0.519 2.557,-0.143 2.557,0.407 m 87.2,1.361 c 0,0.44 -0.169,0.8 -0.376,0.8 -0.537,0 -0.916,-0.728 -0.624,-1.2 0.418,-0.676 1,-0.444 1,0.4 m -75,0 c -0.312,0.506 -1.418,0.506 -2.2,0 -0.445,-0.288 -0.207,-0.389 0.924,-0.394 0.915,-0.004 1.424,0.154 1.276,0.394 m -3.4,0.582 c 0,0.49 -1.158,1 -2.3,1.013 -1.309,0.014 -0.44,-1.398 0.902,-1.467 0.923,-0.047 1.398,0.107 1.398,0.454 m 151.308,0.099 c -0.491,0.095 -1.258,0.656 -1.706,1.246 -1.61,2.124 -2.643,3.095 -4.675,4.395 -2.753,1.762 -2.78,1.81 -3.091,5.379 -0.349,4.009 0.263,4.464 4.491,3.343 6.359,-1.686 12.491,-7.433 13.543,-12.694 0.347,-1.733 -3.923,-2.565 -8.562,-1.669 M 70.61,285.124 c -0.357,0.356 -1,-0.767 -0.988,-1.724 0.008,-0.66 0.118,-0.601 0.625,0.335 0.339,0.625 0.502,1.25 0.363,1.389 m 108.732,-0.865 c 0.909,0.765 1.036,0.996 0.458,0.833 -0.44,-0.124 -1.655,-0.341 -2.7,-0.483 -1.919,-0.261 -2.487,-0.797 -1.2,-1.133 1.518,-0.397 2.234,-0.234 3.442,0.783 M 94,284.424 c 0,0.453 -0.18,0.712 -0.4,0.576 -0.22,-0.136 -0.4,-0.507 -0.4,-0.824 0,-0.317 0.18,-0.576 0.4,-0.576 0.22,0 0.4,0.371 0.4,0.824 M 279.507,284.4 c 0.563,0.902 0.393,0.989 -0.744,0.38 -0.432,-0.231 -0.68,-0.591 -0.551,-0.8 0.361,-0.583 0.747,-0.457 1.295,0.42 m -13.834,0.887 c -0.244,0.244 -1.063,0.27 -2.135,0.068 l -1.738,-0.328 1.8,-0.228 c 2.014,-0.254 2.663,-0.102 2.073,0.488 m 0.316,2.1 c 0.791,0.953 0.315,1.501 -0.691,0.797 -0.494,-0.346 -0.898,-0.799 -0.898,-1.007 0,-0.583 1.045,-0.445 1.589,0.21 m -32.111,1.269 c -0.408,0.407 -0.327,4.647 0.101,5.323 0.282,0.447 0.425,0.31 0.626,-0.6 0.143,-0.648 0.453,-1.687 0.688,-2.308 0.435,-1.148 -0.717,-3.114 -1.415,-2.415"
       stroke="none"
       fill="#747474"
       fill-rule="evenodd"
       />
    <path
       id="path1"
       d="M 0,207 V 392 H 189.8 379.6 V 207 22 H 0 v 185 m 173,-91.818 c 0.88,0.59 3.982,2.394 6.893,4.009 2.911,1.615 5.656,3.275 6.1,3.688 0.802,0.747 0.807,1.109 0.807,54.709 v 53.958 l -1.162,0.827 c -0.639,0.455 -1.359,0.827 -1.6,0.827 -0.241,0 -0.438,0.171 -0.438,0.38 0,0.21 -1.215,1.052 -2.7,1.872 -1.485,0.819 -3.42,1.965 -4.3,2.546 -6.175,4.073 -6.257,4.086 -10.477,1.602 -1.869,-1.1 -3.48,-2 -3.58,-2 -0.164,0 -3.199,-1.825 -5.166,-3.106 -0.428,-0.278 -1.317,-0.852 -1.977,-1.276 -2.151,-1.381 -2.2,-1.49 -2.2,-4.87 0,-3.186 -0.677,-4.678 -2.148,-4.735 -0.191,-0.007 -1.451,-0.684 -2.8,-1.505 -2.49,-1.515 -4.107,-2.418 -6.683,-3.731 -2.402,-1.224 -2.566,-1.636 -2.603,-6.569 -0.042,-5.62 0.141,-5.366 -6.393,-8.835 -1.334,-0.709 -3.449,-1.943 -4.7,-2.743 L 125.6,198.775 V 177.79 156.805 l 1.531,-1.102 c 0.842,-0.607 3.462,-2.179 5.821,-3.493 5.956,-3.318 6.967,-4.828 6.043,-9.031 -0.151,-0.689 -0.159,-2.022 -0.019,-2.961 0.276,-1.838 -0.18,-1.46 6.149,-5.095 1.031,-0.592 2.325,-1.308 2.875,-1.591 0.55,-0.283 1.938,-1.104 3.085,-1.826 l 2.085,-1.311 0.115,-3.646 0.115,-3.645 3.2,-1.892 c 14.8,-8.752 13.211,-8.168 16.4,-6.03 m 38.295,-0.059 c 15.562,8.846 14.014,7.538 14.228,12.02 l 0.173,3.626 3.252,1.862 c 1.789,1.023 3.972,2.26 4.852,2.748 3.299,1.828 4.815,2.718 5.3,3.113 0.349,0.283 0.5,1.836 0.5,5.141 0,5.662 -0.451,5.049 6.675,9.076 5.839,3.3 6.221,3.566 6.86,4.765 0.804,1.51 0.646,39.477 -0.169,40.722 -0.689,1.052 -4.471,3.467 -8.766,5.597 -0.66,0.328 -1.92,1.102 -2.8,1.72 l -1.6,1.124 -0.111,5.013 -0.112,5.014 -2.488,1.402 c -1.369,0.77 -3.389,1.907 -4.489,2.525 -1.1,0.618 -2.478,1.458 -3.062,1.866 -0.584,0.409 -1.186,0.743 -1.338,0.743 -1.37,0 -2.6,1.76 -2.604,3.727 -0.009,3.826 -0.381,5.046 -1.751,5.738 -0.685,0.346 -1.605,0.95 -2.045,1.343 -0.44,0.393 -1.43,1.064 -2.2,1.492 -0.77,0.429 -3.348,1.886 -5.73,3.239 -5.013,2.849 -5.147,2.869 -7.952,1.204 -2.374,-1.408 -5.119,-2.94 -6.918,-3.859 -0.66,-0.337 -1.83,-1.099 -2.6,-1.694 -0.77,-0.594 -1.985,-1.38 -2.7,-1.745 l -1.3,-0.666 0.006,-54.089 c 0.003,-29.75 0.159,-54.331 0.346,-54.626 0.187,-0.295 0.71,-0.745 1.161,-1 1.141,-0.645 10.21,-5.835 12.447,-7.124 2.312,-1.333 2.618,-1.334 4.935,-0.017 m -42.499,5.757 c -0.535,0.198 -1.068,0.511 -1.185,0.697 -0.116,0.185 -1.651,1.074 -3.411,1.977 -5.733,2.939 -5.4,2.014 -5.4,15.006 0,11.758 0.072,11.449 -2.674,11.434 -2.445,-0.013 -2.926,-1.186 -2.926,-7.135 v -4.795 l -1.5,0.408 c -7.997,2.174 -9.671,8.949 -3.045,12.328 1.51,0.77 2.805,1.535 2.878,1.7 0.074,0.165 0.316,0.3 0.539,0.3 0.222,0 0.893,0.348 1.491,0.773 1.794,1.278 3.054,1.412 4.382,0.466 0.648,-0.461 1.272,-0.839 1.387,-0.839 0.485,0 6.866,-4.116 7.333,-4.73 0.381,-0.5 0.513,-3.204 0.522,-10.681 0.015,-11.612 0.092,-11.919 2.941,-11.71 2.603,0.191 2.659,0.471 2.666,13.195 0.007,12.454 -0.039,12.701 -2.638,14.231 -1.023,0.602 -2.467,1.495 -3.21,1.984 -0.743,0.49 -2.555,1.529 -4.028,2.311 -4.16,2.207 -4.118,2.141 -4.118,6.481 0,4.199 -0.286,4.72 -3.477,6.343 -10.685,5.433 -10.523,5.248 -10.523,12.08 0,6.362 -0.249,7.056 -2.533,7.056 -2.888,0 -3.067,-0.516 -3.067,-8.858 0,-8.727 -0.821,-7.413 7.6,-12.166 6.649,-3.752 6.388,-3.502 6.388,-6.136 0,-2.455 -0.166,-2.728 -2.403,-3.942 -0.982,-0.533 -3.315,-1.868 -5.185,-2.967 l -3.4,-1.998 -2,1.087 c -1.1,0.599 -2.63,1.433 -3.4,1.854 -0.77,0.421 -1.46,0.901 -1.533,1.066 -0.074,0.165 -0.303,0.3 -0.509,0.3 -1.916,0 -3.558,2.148 -3.558,4.653 0,1.401 0.097,2.547 0.216,2.547 0.484,0 3.7,-1.783 5.384,-2.986 5.205,-3.716 8.048,-4.587 9.584,-2.939 1.608,1.726 0.79,3.695 -2.263,5.449 -0.647,0.372 -3.819,2.18 -7.049,4.019 l -5.872,3.342 v 11.345 11.345 l 2.183,1.612 c 1.201,0.887 2.293,1.613 2.427,1.613 0.134,0 0.816,0.421 1.517,0.936 0.7,0.515 2.068,1.337 3.039,1.828 l 1.765,0.892 2.035,-1.087 c 1.119,-0.597 2.889,-1.69 3.935,-2.428 1.045,-0.737 2.067,-1.341 2.269,-1.341 0.203,0 0.922,-0.466 1.599,-1.036 l 1.231,-1.035 v -6.983 c 0,-7.653 0.418,-8.946 2.893,-8.946 2.529,0 2.707,0.556 2.707,8.441 0,8.189 -0.127,7.856 3.83,10.053 11.025,6.122 10.157,4.57 10.164,18.18 0.007,12.994 -0.324,14.244 -3.587,13.528 -1.802,-0.396 -2.007,-1.663 -2.007,-12.4 0,-11.04 0.345,-9.984 -4,-12.236 -1.43,-0.741 -2.69,-1.45 -2.8,-1.576 -0.11,-0.125 -1.077,-0.735 -2.149,-1.355 l -1.95,-1.127 -1.45,0.806 c -0.798,0.443 -2.441,1.34 -3.651,1.993 -1.21,0.653 -3.1,1.717 -4.2,2.366 l -2,1.179 -0.118,2.664 c -0.18,4.059 0.218,4.551 5.868,7.255 1.182,0.566 2.204,1.029 2.27,1.029 0.067,0 0.179,-2.617 0.25,-5.815 0.139,-6.199 0.167,-6.283 2.302,-6.85 0.568,-0.151 1.4,-0.018 2,0.318 l 1.028,0.577 0.2,11.044 c 0.233,12.867 -0.24,11.581 5.41,14.711 2.085,1.155 3.79,2.246 3.79,2.425 0,0.795 2.5,0.866 3.545,0.101 0.58,-0.425 2.662,-1.646 4.626,-2.713 5.532,-3.006 5.029,-1.432 5.029,-15.722 0,-14.181 0.389,-12.804 -4.426,-15.666 -10.617,-6.31 -9.672,-4.769 -9.502,-15.497 0.142,-8.96 0.282,-9.446 2.728,-9.446 2.391,0 2.578,0.578 2.8,8.631 l 0.2,7.273 1.285,0.814 c 3.826,2.425 4.819,2.976 5.818,3.226 l 1.097,0.276 v -16.011 c 0,-18.265 0.081,-17.578 -1.936,-16.346 -2.735,1.67 -3.063,1.861 -4.664,2.72 -0.88,0.471 -1.69,0.968 -1.8,1.104 -0.642,0.79 -7.762,4.523 -9.016,4.726 -2.303,0.374 -4.187,-2.241 -2.884,-4.003 0.482,-0.652 5.697,-3.877 6.269,-3.877 0.154,0 0.653,-0.347 1.108,-0.771 0.455,-0.424 2.514,-1.725 4.575,-2.89 2.061,-1.165 3.808,-2.259 3.881,-2.429 0.074,-0.171 0.353,-0.31 0.62,-0.31 0.268,0 1.243,-0.49 2.167,-1.089 l 1.68,-1.09 V 141.185 127.35 l -1.1,-1.013 c -0.605,-0.557 -1.91,-1.461 -2.9,-2.008 -3.049,-1.686 -4.982,-2.801 -5.4,-3.114 -0.741,-0.555 -2.023,-0.698 -3.004,-0.335 m 38.523,0.026 c -7.636,4.282 -9.291,5.342 -9.487,6.071 -0.376,1.4 -0.254,24.513 0.135,25.536 0.202,0.53 1.057,1.287 1.9,1.682 0.843,0.395 1.983,1.026 2.533,1.403 0.55,0.377 2.44,1.441 4.2,2.364 4.711,2.472 5,2.897 5.001,7.36 0,2.896 0.166,3.976 0.778,5.078 2.429,4.372 2.466,5.928 0.193,8.201 -4.909,4.91 -11.967,-1.613 -7.761,-7.172 1.927,-2.547 1.776,-6.504 -0.311,-8.132 -2.098,-1.637 -6.384,-4.079 -6.666,-3.798 -0.129,0.129 -0.234,7.776 -0.234,16.995 v 16.76 l 0.9,-0.267 c 0.495,-0.147 1.54,-0.699 2.322,-1.227 0.781,-0.528 1.636,-0.96 1.9,-0.96 0.263,0 0.478,-0.136 0.478,-0.302 0,-0.167 0.532,-0.538 1.183,-0.826 0.809,-0.359 1.501,-1.194 2.186,-2.643 2.585,-5.464 10.231,-4.483 10.231,1.312 0,4 -1.794,5.597 -6.305,5.612 -3.064,0.009 -3.041,0 -9.221,3.823 l -3.674,2.272 v 14.016 14.015 l 1.242,1.161 c 0.684,0.638 1.421,1.16 1.64,1.16 0.427,0 4.701,2.513 6.272,3.687 1.381,1.032 2.884,0.879 4.675,-0.476 0.864,-0.654 1.72,-1.194 1.901,-1.2 0.725,-0.024 5.925,-3.367 6.285,-4.039 0.212,-0.396 0.385,-3.586 0.385,-7.091 v -6.371 l -1.2,-1.51 c -1.12,-1.409 -1.415,-2.437 -1.266,-4.4 0.404,-5.295 7.376,-6.675 10.107,-2 1.236,2.117 0.977,4.028 -0.841,6.2 -2.83,3.38 -2.204,5.991 0.955,3.987 1.03,-0.653 2.047,-1.187 2.259,-1.187 0.212,0 0.386,-0.18 0.386,-0.4 0,-0.22 0.208,-0.4 0.462,-0.4 0.254,0 1.064,-0.459 1.8,-1.02 2.797,-2.133 1.406,-9.38 -1.8,-9.38 -0.254,0 -0.462,-0.141 -0.462,-0.312 0,-0.172 -0.495,-0.534 -1.1,-0.805 -0.605,-0.27 -2.18,-1.105 -3.5,-1.855 -2.924,-1.66 -3.389,-1.697 -5.4,-0.428 -0.871,0.55 -1.768,1 -1.992,1 -0.224,0 -0.408,0.141 -0.408,0.312 0,0.172 -0.495,0.523 -1.1,0.78 -1.265,0.537 -4.53,2.423 -5.053,2.919 -0.501,0.475 -0.665,11.089 -0.19,12.345 0.217,0.574 0.867,1.54 1.445,2.146 2.385,2.5 0.9,7.269 -2.569,8.255 -5.364,1.525 -9.083,-4.196 -5.733,-8.82 l 1.2,-1.657 v -7.74 c 0,-6.613 0.087,-7.74 0.6,-7.74 0.33,0 0.6,-0.18 0.6,-0.4 0,-0.22 0.173,-0.4 0.384,-0.4 0.212,0 2.057,-1.013 4.1,-2.251 2.044,-1.238 4.346,-2.618 5.116,-3.068 3.086,-1.799 3.2,-2.023 3.2,-6.271 v -3.851 l 2.952,-1.679 c 1.624,-0.924 3.154,-1.68 3.4,-1.68 0.246,0 0.448,-0.18 0.448,-0.4 0,-0.22 0.167,-0.4 0.371,-0.4 0.45,0 5.149,-2.71 6.129,-3.535 1.171,-0.985 1.02,-9.295 -0.2,-10.998 -2.608,-3.64 -2.531,-6.027 0.279,-8.653 4.76,-4.447 11.093,2.798 7.269,8.317 -1.021,1.474 -1.048,1.67 -1.048,7.763 v 6.252 l -1.1,0.761 c -0.605,0.419 -3.569,2.147 -6.586,3.84 -8.44,4.735 -9.121,7.275 -2.884,10.752 1.083,0.604 3.113,1.819 4.51,2.7 1.397,0.88 2.805,1.601 3.129,1.601 0.664,0 4.259,-2.001 4.464,-2.485 0.074,-0.173 0.311,-0.315 0.528,-0.315 0.217,0 1.18,-0.54 2.139,-1.2 0.959,-0.66 1.924,-1.2 2.145,-1.2 1.041,0 2.055,-2.349 2.055,-4.762 0,-2.871 -0.227,-2.967 -3.211,-1.355 -2.35,1.269 -3.345,2.272 -3.864,3.894 -1.984,6.2 -11.451,3.558 -10.334,-2.885 0.519,-2.992 2.184,-4.092 6.197,-4.092 1.982,0 3.149,-0.202 3.862,-0.67 0.562,-0.368 1.516,-0.953 2.121,-1.3 0.604,-0.346 2.03,-1.17 3.168,-1.83 l 2.07,-1.2 -0.105,-11.178 -0.104,-11.179 -3.8,-2.156 c -2.09,-1.186 -4.553,-2.58 -5.473,-3.099 l -1.673,-0.942 -1.927,0.983 c -1.06,0.54 -2.827,1.518 -3.927,2.173 -1.1,0.656 -2.376,1.358 -2.835,1.56 -2.436,1.075 -2.965,2.51 -2.965,8.04 v 5.141 l 1.6,2.409 c 2.4,3.613 1.802,6.713 -1.634,8.465 -5.405,2.758 -10.119,-3.613 -6.355,-8.588 L 220,172.257 v -5.893 -5.893 l -1.231,-1.035 c -0.677,-0.57 -1.384,-1.036 -1.571,-1.036 -0.188,0 -0.579,-0.227 -0.869,-0.505 -0.291,-0.277 -0.979,-0.723 -1.529,-0.99 -0.55,-0.267 -1.9,-1.028 -3,-1.691 -1.1,-0.663 -2.855,-1.686 -3.9,-2.273 l -1.9,-1.068 v -7.852 -7.851 l -1.184,-1.385 c -4.484,-5.246 2.818,-12.139 7.694,-7.263 2.246,2.246 2.33,4.578 0.267,7.45 l -1.377,1.917 -0.061,5.454 c -0.075,6.72 -0.374,6.213 5.662,9.626 6.039,3.415 5.49,3.395 10.85,0.404 6.119,-3.414 6.149,-3.449 6.149,-7.181 0,-3.536 -0.023,-3.569 -4,-5.639 -1.43,-0.744 -2.66,-1.488 -2.733,-1.653 -0.074,-0.165 -0.569,-0.3 -1.1,-0.3 -1.574,0 -1.296,1.999 0.633,4.554 3.302,4.373 0.566,9.471 -4.805,8.955 -4.146,-0.398 -5.987,-6.026 -3.095,-9.463 1.493,-1.774 1.703,-15.646 0.237,-15.646 -0.203,0 -0.857,-0.338 -1.453,-0.75 -5.646,-3.908 -8.792,-5.227 -10.365,-4.344 m -0.327,8.959 c -0.742,0.743 -0.547,2.862 0.314,3.409 2.28,1.448 5.289,-1.719 3.414,-3.594 -0.699,-0.699 -2.956,-0.587 -3.728,0.185 m 13.541,14.781 c -0.614,0.937 -0.624,1.156 -0.097,2.1 1.346,2.409 5.355,0.974 4.543,-1.626 -0.591,-1.894 -3.325,-2.185 -4.446,-0.474 m 14.474,17.604 c -1.089,1.089 -0.657,3.448 0.72,3.93 1.408,0.492 3.214,-0.396 3.398,-1.67 0.326,-2.255 -2.546,-3.832 -4.118,-2.26 M 208,172.682 c -1.613,0.565 -2.102,2.739 -0.869,3.856 1.523,1.378 4.069,0.445 4.069,-1.49 0,-1.638 -1.697,-2.893 -3.2,-2.366 m 12.846,3.55 c -1.014,1.289 -1.044,1.707 -0.208,2.901 0.927,1.323 3.303,1.085 4.141,-0.415 1.336,-2.391 -2.233,-4.647 -3.933,-2.486 m -10.614,10.614 c -2.337,1.839 -0.118,5.382 2.468,3.942 1.524,-0.849 1.756,-3.034 0.431,-4.054 -1.205,-0.927 -1.598,-0.911 -2.899,0.112 m 24.422,3.583 c -1.763,1.387 -0.864,4.371 1.317,4.371 2.069,0 2.842,-3.376 1.043,-4.554 -1.222,-0.801 -1.097,-0.811 -2.36,0.183 m -13.838,17.646 c -1.27,1.363 -1.034,2.574 0.676,3.475 2.501,1.317 4.876,-1.582 2.908,-3.55 -1.048,-1.048 -2.567,-1.016 -3.584,0.075 m -13.535,14.027 c -2.019,2.433 0.478,5.463 3.03,3.675 1.039,-0.728 1.145,-2.033 0.266,-3.288 -0.693,-0.989 -2.609,-1.214 -3.296,-0.387 m -121.83,37.502 c 6.092,0.989 12.886,6.433 13.549,10.858 l 0.277,1.846 -4.008,0.287 c -4.798,0.343 -6.283,-0.042 -7.909,-2.051 -2.281,-2.82 -6.606,-4.036 -9.05,-2.545 -0.721,0.439 -1.58,0.802 -1.91,0.808 -0.33,0.005 -1.477,0.776 -2.548,1.714 l -1.948,1.704 -0.338,3.588 c -0.814,8.628 4.843,13.835 12.587,11.583 2.136,-0.62 4.647,-2.518 4.647,-3.511 0,-1.007 -1.533,-2.126 -1.834,-1.339 -0.203,0.527 -0.849,0.654 -3.332,0.654 -4.442,0 -4.928,-0.552 -4.411,-5 0.077,-0.66 0.006,-1.59 -0.158,-2.066 -0.303,-0.881 1.184,-1.073 10.335,-1.335 3.578,-0.103 10.677,0.67 11.035,1.201 0.455,0.675 0.144,5.273 -0.428,6.328 -0.2,0.37 -0.657,1.613 -1.015,2.763 -2.414,7.759 -14.594,13.528 -22.899,10.845 -6.917,-2.235 -15.488,-9.932 -12.864,-11.554 0.443,-0.274 0.316,-0.595 -0.624,-1.576 -2.119,-2.213 -1.336,-11.489 1.217,-14.406 3.265,-3.73 4.646,-4.991 7.071,-6.456 4.184,-2.528 8.814,-3.272 14.558,-2.34 m 191.501,0.496 c 0.773,1.219 1.953,4.23 3.204,8.179 0.572,1.803 1.49,3.943 2.042,4.755 0.551,0.813 1.002,1.723 1.002,2.022 0,0.299 0.151,0.544 0.336,0.544 0.185,0 0.564,1.035 0.841,2.3 0.508,2.317 0.808,3.113 2.827,7.5 0.608,1.32 1.235,3.009 1.394,3.754 0.159,0.745 0.744,2.26 1.301,3.368 1.465,2.917 1.118,3.25 -3.541,3.395 -5.129,0.16 -6.758,-0.639 -6.758,-3.316 0,-1.501 -1.343,-1.827 -7.044,-1.713 L 267,291 l -1.103,2.178 c -1.44,2.842 -1.361,2.809 -6.61,2.816 -5.327,0.007 -5.485,-0.13 -3.934,-3.405 0.574,-1.212 1.418,-3.325 1.875,-4.696 0.458,-1.371 1.539,-3.953 2.402,-5.738 0.864,-1.785 1.57,-3.468 1.57,-3.74 0,-0.622 0.756,-2.358 3.23,-7.415 1.076,-2.2 2.151,-4.81 2.39,-5.8 0.991,-4.116 3.261,-5.932 7.471,-5.977 1.746,-0.019 2.185,0.125 2.661,0.877 m 39.044,0.097 c 0.678,0.613 0.804,1.23 0.804,3.933 0,4.229 -0.379,4.67 -4.01,4.67 h -2.685 l -0.296,10.695 c -0.225,8.099 -0.432,10.888 -0.853,11.489 -0.306,0.437 -0.556,1.658 -0.556,2.715 0,2.39 -0.477,2.622 -5.131,2.492 -4.588,-0.128 -4.252,0.951 -4.337,-13.908 l -0.074,-12.883 -1.129,-0.253 c -0.621,-0.139 -1.837,-0.274 -2.703,-0.3 -3.104,-0.093 -5.185,-6.486 -2.766,-8.498 1.484,-1.235 22.391,-1.369 23.736,-0.152 m -81.78,-0.17 c 1.005,1.625 -0.329,7.456 -1.901,8.313 -7.271,3.96 -8.118,13.456 -1.645,18.425 2.123,1.63 3.081,7.644 1.474,9.251 -2.109,2.109 -11.13,-4.275 -14.153,-10.016 l -1.791,-3.4 0.059,-4.108 c 0.043,-3.016 0.229,-4.367 0.7,-5.086 0.353,-0.538 0.641,-1.587 0.641,-2.332 0,-2.576 6.134,-9.113 9.059,-9.655 0.847,-0.157 2.081,-0.524 2.741,-0.816 2.467,-1.092 4.358,-1.318 4.816,-0.576 m 10.283,1.708 c 5.314,2.803 8.766,7.029 9.184,11.245 0.317,3.2 -8.037,2.189 -11.197,-1.354 -1.607,-1.803 -2.59,-2.529 -4.103,-3.032 -2.845,-0.945 -3.443,-2.817 -2.323,-7.267 l 0.46,-1.827 2.258,0.205 c 1.644,0.149 3.2,0.701 5.721,2.03 M 173.7,260.723 c 0.802,0.688 0.99,6.568 0.303,9.477 -0.406,1.723 -0.088,7 0.422,7 0.17,0 0.72,-0.665 1.223,-1.477 0.82,-1.327 2.911,-3.95 5.12,-6.423 0.883,-0.989 2.313,-1.113 7.332,-0.639 2.623,0.247 3.653,1.103 2.32,1.927 -0.997,0.616 -9.22,9.853 -9.22,10.357 0,0.316 0.675,1.489 1.5,2.607 0.825,1.118 2.214,3.161 3.087,4.54 0.873,1.38 2.255,3.234 3.07,4.121 1.816,1.973 2.348,3.612 1.277,3.928 -5.945,1.753 -10.187,-0.344 -12.965,-6.408 -1.154,-2.52 -2.276,-4.133 -2.874,-4.133 -0.18,0 -0.206,2.038 -0.057,4.528 l 0.271,4.528 -1.062,0.836 c -1.205,0.948 -4.405,1.513 -6.26,1.105 -2.221,-0.488 -2.629,-1.769 -2.437,-7.653 0.216,-6.61 0.214,-10.223 -0.014,-19.486 -0.236,-9.568 -0.329,-9.385 4.761,-9.355 2.514,0.014 3.701,0.189 4.203,0.62 m -93.924,2.915 c -0.149,0.241 -0.003,0.706 0.324,1.033 0.526,0.526 0.617,0.476 0.792,-0.438 0.203,-1.062 -0.572,-1.474 -1.116,-0.595 m 194.036,2.608 c -0.709,0.708 -0.777,1.205 -0.212,1.554 0.22,0.136 0.4,0.078 0.4,-0.13 0,-0.207 0.36,-0.471 0.8,-0.586 0.44,-0.115 0.8,-0.387 0.8,-0.604 0,-0.708 -1.162,-0.861 -1.788,-0.234 m -48.112,0.286 c -0.715,0.211 -1.3,0.527 -1.3,0.702 0,0.65 0.752,0.747 1.935,0.25 1.634,-0.687 1.113,-1.468 -0.635,-0.952 m -103.947,1.094 c 0.466,0.542 1.159,0.925 1.54,0.852 1.582,-0.305 6.19,4.798 7.189,7.962 1.561,4.942 1.055,8.289 -1.181,7.82 -0.605,-0.127 -1.697,-0.349 -2.425,-0.494 -0.737,-0.147 -1.249,-0.464 -1.155,-0.715 0.093,-0.248 0.285,-0.901 0.426,-1.451 l 0.257,-1 -0.495,1 c -1.05,2.121 -1.232,2.175 -7.278,2.141 -3.109,-0.017 -6.08,-0.166 -6.601,-0.331 -0.911,-0.29 -0.939,-0.239 -0.73,1.322 0.35,2.607 3.422,5.89 4.03,4.306 0.119,-0.31 0.813,-0.689 1.543,-0.845 0.73,-0.155 2.606,-0.892 4.169,-1.637 3.089,-1.474 3.881,-1.579 6.954,-0.92 2.326,0.499 2.378,0.902 0.481,3.705 -5.353,7.911 -17.708,8.119 -23.635,0.398 -5.775,-7.522 -3.169,-17.178 5.946,-22.029 3.416,-1.818 9.433,-1.864 10.965,-0.084 m 31.372,-0.294 c 0.429,0.389 1.413,0.881 2.185,1.094 1.356,0.375 3.871,2.915 5.605,5.662 2.067,3.272 2.37,9.444 0.5,10.162 -1.971,0.756 -4.986,-1.319 -3.735,-2.57 0.276,-0.276 0.307,-0.48 0.074,-0.48 -0.223,0 -0.717,0.653 -1.097,1.45 l -0.692,1.45 -3.282,-0.324 c -3.247,-0.32 -3.954,-0.331 -6.683,-0.106 -0.77,0.064 -1.805,-0.028 -2.3,-0.204 -1.401,-0.498 -1.269,2.185 0.2,4.071 0.605,0.777 1.31,1.784 1.567,2.238 0.454,0.8 0.476,0.793 0.736,-0.246 0.218,-0.865 0.571,-1.122 1.842,-1.337 0.866,-0.146 2.834,-0.879 4.375,-1.629 3.44,-1.674 7.156,-1.734 8.924,-0.144 1.022,0.918 -4.469,6.452 -7.988,8.049 -2.232,1.014 -7.722,1.282 -9.395,0.46 -0.529,-0.26 -1.597,-0.666 -2.375,-0.903 -4.312,-1.313 -8.747,-8.895 -8.265,-14.128 0.412,-4.467 4.599,-10.667 7.9,-11.699 0.538,-0.168 1.069,-0.422 1.179,-0.563 1.096,-1.409 9.248,-1.639 10.725,-0.303 m 54.964,0.601 c 3.849,1.879 6.4,7.077 3.869,7.88 -2.015,0.64 -5.423,0.266 -7.507,-0.825 -1.535,-0.802 -2.327,-0.991 -3.277,-0.782 l -1.253,0.275 1.326,1.367 c 0.766,0.791 2.006,1.54 2.939,1.776 6.041,1.531 9.635,4.385 9.505,7.547 -0.365,8.877 -8.896,13.366 -17.2,9.051 -2.676,-1.391 -5.291,-4.75 -5.291,-6.796 0,-2.34 7.007,-2.361 9.199,-0.027 0.987,1.051 4.801,1.512 4.801,0.581 0,-1.939 -2.492,-3.832 -6.016,-4.569 -0.761,-0.159 -2.119,-0.712 -3.017,-1.228 -11.428,-6.567 -0.09,-20.118 11.922,-14.25 m 93.011,-0.976 c -0.955,0.725 -0.861,1.081 0.589,2.229 l 1.245,0.986 -0.267,-1.336 c -0.147,-0.735 -0.267,-1.584 -0.267,-1.886 0,-0.683 -0.394,-0.681 -1.3,0.007 m -29.9,2.843 c -0.43,0.518 -0.259,0.598 1.251,0.587 1.625,-0.012 1.694,-0.054 0.973,-0.6 -0.987,-0.746 -1.597,-0.743 -2.224,0.013 m 33.8,2.6 c -0.709,0.305 -0.675,0.347 0.3,0.372 0.605,0.015 1.1,-0.152 1.1,-0.372 0,-0.469 -0.307,-0.469 -1.4,0 m -32.731,0.3 c -0.097,0.165 -0.308,1.268 -0.468,2.451 -0.159,1.183 -0.715,3.111 -1.234,4.285 l -0.944,2.135 0.878,0.614 c 0.546,0.383 1.76,0.615 3.22,0.615 h 2.343 l -0.259,-1.3 c -0.32,-1.616 -1.722,-6.524 -2.283,-8 -0.412,-1.08 -0.901,-1.393 -1.253,-0.8 M 114.2,274.319 c -2.842,0.998 -4.23,2.693 -2.5,3.053 3.403,0.707 10.757,0.682 10.368,-0.035 -1.402,-2.588 -5.079,-3.998 -7.868,-3.018 m 29.9,0.774 c -3.668,1.891 -2.95,2.282 5,2.724 2.475,0.138 4.5,0.154 4.5,0.036 0,-3.158 -5.582,-4.779 -9.5,-2.76 m 158.9,1.095 c 1.282,1.05 1.8,1.236 1.8,0.645 0,-0.202 0.109,-0.652 0.243,-1 0.198,-0.518 -0.075,-0.633 -1.5,-0.631 l -1.743,0.002 1.2,0.984 m -83.4,1.061 c 0,0.709 0.099,0.767 0.6,0.351 0.33,-0.274 0.6,-0.656 0.6,-0.849 0,-0.193 -0.27,-0.351 -0.6,-0.351 -0.345,0 -0.6,0.361 -0.6,0.849 M 106,278.77 c 0,0.667 1.085,1.479 1.467,1.097 0.288,-0.288 -0.33,-1.406 -0.898,-1.624 -0.366,-0.14 -0.569,0.047 -0.569,0.527 m 31.2,-0.184 c 0,0.561 1.5,1.647 1.825,1.322 0.242,-0.242 -1.022,-1.908 -1.448,-1.908 -0.207,0 -0.377,0.264 -0.377,0.586 m -54.557,0.846 c -0.162,0.423 0.135,0.568 1.17,0.568 1.694,0 1.752,-0.195 0.218,-0.729 -0.919,-0.321 -1.216,-0.286 -1.388,0.161 M 171.4,280.8 c -0.292,0.472 0.087,1.2 0.624,1.2 0.207,0 0.376,-0.36 0.376,-0.8 0,-0.844 -0.582,-1.076 -1,-0.4 m -76.2,0.4 c 0.782,0.506 1.888,0.506 2.2,0 0.148,-0.24 -0.361,-0.398 -1.276,-0.394 -1.131,0.005 -1.369,0.106 -0.924,0.394 m -3.998,0.9 c -0.002,0.74 0.429,0.842 1.898,0.448 1.47,-0.394 1.099,-1.301 -0.498,-1.22 -1.037,0.054 -1.399,0.253 -1.4,0.772 m 162.067,-0.063 c 2.454,1.313 -2.827,9.256 -8.186,12.311 -6.436,3.669 -9.648,3.166 -9.247,-1.447 0.311,-3.569 0.338,-3.617 3.091,-5.379 2.032,-1.3 3.065,-2.271 4.675,-4.395 0.448,-0.59 1.215,-1.151 1.706,-1.246 1.886,-0.364 7.183,-0.261 7.961,0.156 M 69.622,283.4 c -0.012,0.957 0.631,2.08 0.988,1.724 0.139,-0.139 -0.024,-0.764 -0.363,-1.389 -0.507,-0.936 -0.617,-0.995 -0.625,-0.335 m 106.278,0.076 c -1.287,0.336 -0.719,0.872 1.2,1.133 1.045,0.142 2.26,0.359 2.7,0.483 0.578,0.163 0.451,-0.068 -0.458,-0.833 -1.208,-1.017 -1.924,-1.18 -3.442,-0.783 m -82.7,0.7 c 0,0.317 0.18,0.688 0.4,0.824 0.22,0.136 0.4,-0.123 0.4,-0.576 0,-0.453 -0.18,-0.824 -0.4,-0.824 -0.22,0 -0.4,0.259 -0.4,0.576 m 185.012,-0.196 c -0.129,0.209 0.119,0.569 0.551,0.8 1.137,0.609 1.307,0.522 0.744,-0.38 -0.548,-0.877 -0.934,-1.003 -1.295,-0.42 m -14.612,0.819 -1.8,0.228 1.738,0.328 c 1.072,0.202 1.891,0.176 2.135,-0.068 0.59,-0.59 -0.059,-0.742 -2.073,-0.488 m 0.8,2.378 c 0,0.208 0.404,0.661 0.898,1.007 1.006,0.704 1.482,0.156 0.691,-0.797 -0.544,-0.655 -1.589,-0.793 -1.589,-0.21 m -29.107,3.894 c -0.235,0.621 -0.545,1.66 -0.688,2.308 -0.397,1.799 -0.991,0.481 -0.999,-2.212 -0.007,-2.64 0.275,-3.064 1.332,-2.007 0.655,0.656 0.713,0.967 0.355,1.911"
       stroke="none"
       fill="#fbfbfb"
       fill-rule="evenodd"
      />
    <path
       id="path2"
       d="M168.191 114.453 C 166.716 115.241,165.355 116.034,156.600 121.212 L 153.400 123.104 153.285 126.749 L 153.170 130.395 151.085 131.706 C 149.938 132.428,148.550 133.249,148.000 133.532 C 147.450 133.815,146.156 134.531,145.125 135.123 C 138.796 138.758,139.252 138.380,138.976 140.218 C 138.836 141.157,138.844 142.490,138.995 143.179 C 139.919 147.382,138.908 148.892,132.952 152.210 C 130.593 153.524,127.973 155.096,127.131 155.703 L 125.600 156.805 125.600 177.790 L 125.600 198.775 127.873 200.230 C 129.124 201.030,131.239 202.264,132.573 202.973 C 139.107 206.442,138.924 206.188,138.966 211.808 C 139.003 216.741,139.167 217.153,141.569 218.377 C 144.145 219.690,145.762 220.593,148.252 222.108 C 149.601 222.929,150.861 223.606,151.052 223.613 C 152.523 223.670,153.200 225.162,153.200 228.348 C 153.200 231.728,153.249 231.837,155.400 233.218 C 156.060 233.642,156.949 234.216,157.377 234.494 C 159.344 235.775,162.379 237.600,162.543 237.600 C 162.643 237.600,164.254 238.500,166.123 239.600 C 170.343 242.084,170.425 242.071,176.600 237.998 C 177.480 237.417,179.415 236.271,180.900 235.452 C 182.385 234.632,183.600 233.790,183.600 233.580 C 183.600 233.371,183.797 233.200,184.038 233.200 C 184.279 233.200,184.999 232.828,185.638 232.373 L 186.800 231.546 186.800 177.588 C 186.800 123.988,186.795 123.626,185.993 122.879 C 185.549 122.466,182.804 120.806,179.893 119.191 C 176.982 117.576,173.880 115.772,173.000 115.182 C 170.636 113.598,169.979 113.498,168.191 114.453 M171.800 121.215 C 172.218 121.528,174.151 122.643,177.200 124.329 C 178.190 124.876,179.495 125.780,180.100 126.337 L 181.200 127.350 181.200 141.185 L 181.200 155.021 179.520 156.111 C 178.596 156.710,177.621 157.200,177.353 157.200 C 177.086 157.200,176.807 157.339,176.733 157.510 C 176.660 157.680,174.913 158.774,172.852 159.939 C 170.791 161.104,168.732 162.405,168.277 162.829 C 167.822 163.253,167.323 163.600,167.169 163.600 C 166.597 163.600,161.382 166.825,160.900 167.477 C 160.131 168.517,160.300 169.537,161.429 170.666 C 163.039 172.275,163.746 172.060,171.600 167.572 C 172.150 167.257,172.690 166.889,172.800 166.754 C 172.910 166.618,173.720 166.121,174.600 165.650 C 176.201 164.791,176.529 164.600,179.264 162.930 C 181.281 161.698,181.200 161.011,181.200 179.276 L 181.200 195.287 180.103 195.011 C 179.104 194.761,178.111 194.210,174.285 191.785 L 173.000 190.971 172.800 183.698 C 172.578 175.645,172.391 175.067,170.000 175.067 C 167.554 175.067,167.414 175.553,167.272 184.513 C 167.102 195.241,166.157 193.700,176.774 200.010 C 181.589 202.872,181.200 201.495,181.200 215.676 C 181.200 229.966,181.703 228.392,176.171 231.398 C 174.207 232.465,172.125 233.686,171.545 234.111 C 170.500 234.876,168.000 234.805,168.000 234.010 C 168.000 233.831,166.295 232.740,164.210 231.585 C 158.560 228.455,159.033 229.741,158.800 216.874 L 158.600 205.830 157.572 205.253 C 156.972 204.917,156.140 204.784,155.572 204.935 C 153.437 205.502,153.409 205.586,153.270 211.785 C 153.199 214.983,153.087 217.600,153.020 217.600 C 152.954 217.600,151.932 217.137,150.750 216.571 C 145.100 213.867,144.702 213.375,144.882 209.316 L 145.000 206.652 147.000 205.473 C 148.100 204.824,149.990 203.760,151.200 203.107 C 152.410 202.454,154.053 201.557,154.851 201.114 L 156.301 200.308 158.251 201.435 C 159.323 202.055,160.290 202.665,160.400 202.790 C 160.510 202.916,161.770 203.625,163.200 204.366 C 167.545 206.618,167.200 205.562,167.200 216.602 C 167.200 227.339,167.405 228.606,169.207 229.002 C 172.470 229.718,172.801 228.468,172.794 215.474 C 172.787 201.864,173.655 203.416,162.630 197.294 C 158.673 195.097,158.800 195.430,158.800 187.241 C 158.800 179.356,158.622 178.800,156.093 178.800 C 153.618 178.800,153.200 180.093,153.200 187.746 L 153.200 194.729 151.969 195.764 C 151.292 196.334,150.573 196.800,150.370 196.800 C 150.168 196.800,149.146 197.404,148.101 198.141 C 147.055 198.879,145.285 199.972,144.166 200.569 L 142.131 201.656 140.366 200.764 C 139.395 200.273,138.027 199.451,137.327 198.936 C 136.626 198.421,135.944 198.000,135.810 198.000 C 135.676 198.000,134.584 197.274,133.383 196.387 L 131.200 194.775 131.200 183.430 L 131.200 172.085 137.072 168.743 C 140.302 166.904,143.474 165.096,144.121 164.724 C 147.174 162.970,147.992 161.001,146.384 159.275 C 144.848 157.627,142.005 158.498,136.800 162.214 C 135.116 163.417,131.900 165.200,131.416 165.200 C 131.297 165.200,131.200 164.054,131.200 162.653 C 131.200 160.148,132.842 158.000,134.758 158.000 C 134.964 158.000,135.193 157.865,135.267 157.700 C 135.340 157.535,136.030 157.055,136.800 156.634 C 137.570 156.213,139.100 155.379,140.200 154.780 L 142.200 153.693 145.600 155.691 C 147.470 156.790,149.803 158.125,150.785 158.658 C 153.022 159.872,153.188 160.145,153.188 162.600 C 153.188 165.234,153.449 164.984,146.800 168.736 C 138.379 173.489,139.200 172.175,139.200 180.902 C 139.200 189.244,139.379 189.760,142.267 189.760 C 144.551 189.760,144.800 189.066,144.800 182.704 C 144.800 175.872,144.638 176.057,155.323 170.624 C 158.514 169.001,158.800 168.480,158.800 164.281 C 158.800 159.941,158.758 160.007,162.918 157.800 C 164.391 157.018,166.203 155.979,166.946 155.489 C 167.689 155.000,169.133 154.107,170.156 153.505 C 172.755 151.975,172.801 151.728,172.794 139.274 C 172.787 126.550,172.731 126.270,170.128 126.079 C 167.279 125.870,167.202 126.177,167.187 137.789 C 167.178 145.266,167.046 147.970,166.665 148.470 C 166.198 149.084,159.817 153.200,159.332 153.200 C 159.217  153.200,158.593 153.578,157.945 154.039 C 156.617 154.985,155.357 154.851,153.563 153.573 C 152.965 153.148,152.294 152.800,152.072 152.800 C 151.849 152.800,151.607 152.665,151.533 152.500 C 151.460 152.335,150.165 151.570,148.655 150.800 C 145.251 149.064,144.800 148.442,144.800 145.485 C 144.800 142.072,147.115 139.718,151.700 138.472 L 153.200 138.064 153.200 142.859 C 153.200 148.808,153.681 149.981,156.126 149.994 C 158.872 150.009,158.800 150.318,158.800 138.560 C 158.800 125.568,158.467 126.493,164.200 123.554 C 165.960 122.651,167.495 121.762,167.611 121.577 C 168.212 120.620,170.716 120.404,171.800 121.215 "
       stroke="none"
       fill="#fc6404"
       fill-rule="evenodd" />
  </g>
</svg>
